# xmcd
#
# Track frame offsets: 
#        150
#        27355
#        47525
#        70936
#        87472
#        107462
#        133365
#        151522
#        169141
#        189181
#        209603
#
# Disc length: 3060 seconds
#
# Revision: 4
# Processed by: cddbd v1.5.2PL0 Copyright (c) Steve Scherf et al.
# Submitted via: ExactAudioCopyFreeDBPlugin 1.0
#
DISCID=8f0bf20b
DTITLE=Death - Live In Germany, April 13, 1993
DYEAR=2011
DGENRE=Death Metal
TTITLE0=Leprosy
TTITLE1=Suicide Machine
TTITLE2=Living Monstrosity
TTITLE3=Overactive Imagination
TTITLE4=Flattening Of Emotions
TTITLE5=Within The Mind
TTITLE6=In Human Form
TTITLE7=Lack Of Comprehesion
TTITLE8=Trapped In A Corner
TTITLE9=Zombie Ritual
TTITLE10=The Exorcist (Studio Outtake)
EXTD=YEAR: 2011
EXTT0=
EXTT1=
EXTT2=
EXTT3=
EXTT4=
EXTT5=
EXTT6=
EXTT7=
EXTT8=
EXTT9=
EXTT10=
PLAYORDER=
